<svg width="40" height="40" viewBox="0 0 40 40" fill="none" xmlns="http://www.w3.org/2000/svg">
<path d="M35.4727 13.793L25.5547 12.3516L21.1211 3.3633C21 3.1172 20.8008 2.91798 20.5547 2.79689C19.9375 2.4922 19.1875 2.74611 18.8789 3.3633L14.4453 12.3516L4.52736 13.793C4.25392 13.832 4.00392 13.961 3.81251 14.1563C3.58111 14.3941 3.4536 14.7141 3.458 15.0459C3.46239 15.3777 3.59833 15.6942 3.83595 15.9258L11.0117 22.9219L9.31642 32.8008C9.27666 33.0306 9.30209 33.2669 9.38982 33.483C9.47756 33.6991 9.62408 33.8863 9.81278 34.0234C10.0015 34.1604 10.2248 34.2418 10.4574 34.2584C10.6901 34.275 10.9227 34.2261 11.1289 34.1172L20 29.4531L28.8711 34.1172C29.1133 34.2461 29.3945 34.2891 29.6641 34.2422C30.3438 34.125 30.8008 33.4805 30.6836 32.8008L28.9883 22.9219L36.1641 15.9258C36.3594 15.7344 36.4883 15.4844 36.5274 15.211C36.6328 14.5274 36.1563 13.8945 35.4727 13.793Z" fill="#FBFBFB"/>
</svg>
